<svg width="183" height="95" viewBox="0 0 183 95" fill="none" xmlns="http://www.w3.org/2000/svg">
<rect x="42.5" y="47.5" width="137" height="45" fill="#00B5CE"/>
<path d="M84.5984 79.24C82.9024 79.24 81.3664 78.872 79.9904 78.136C78.6304 77.384 77.5584 76.352 76.7744 75.04C76.0064 73.728 75.6224 72.248 75.6224 70.6C75.6224 68.952 76.0144 67.472 76.7984 66.16C77.5824 64.848 78.6544 63.824 80.0144 63.088C81.3904 62.336 82.9264 61.96 84.6224 61.96C85.9984 61.96 87.2544 62.2 88.3904 62.68C89.5264 63.16 90.4864 63.856 91.2704 64.768L89.2544 66.664C88.0384 65.352 86.5424 64.696 84.7664 64.696C83.6144 64.696 82.5824 64.952 81.6704 65.464C80.7584 65.96 80.0464 66.656 79.5344 67.552C79.0224 68.448 78.7664 69.464 78.7664 70.6C78.7664 71.736 79.0224 72.752 79.5344 73.648C80.0464 74.544 80.7584 75.248 81.6704 75.76C82.5824 76.256 83.6144 76.504 84.7664 76.504C86.5424 76.504 88.0384 75.84 89.2544 74.512L91.2704 76.432C90.4864 77.344 89.5184 78.04 88.3664 78.52C87.2304 79 85.9744 79.24 84.5984 79.24ZM101.244 66.04C102.86 66.04 104.156 66.512 105.132 67.456C106.108 68.4 106.596 69.8 106.596 71.656V79H103.596V72.04C103.596 70.92 103.332 70.08 102.804 69.52C102.276 68.944 101.524 68.656 100.548 68.656C99.4439 68.656 98.5719 68.992 97.9319 69.664C97.2919 70.32 96.9719 71.272 96.9719 72.52V79H93.9719V61.192H96.9719V67.672C97.4679 67.144 98.0759 66.744 98.7959 66.472C99.5319 66.184 100.348 66.04 101.244 66.04ZM116.279 79.168C114.983 79.168 113.815 78.888 112.775 78.328C111.735 77.768 110.919 76.992 110.327 76C109.751 74.992 109.463 73.856 109.463 72.592C109.463 71.328 109.751 70.2 110.327 69.208C110.919 68.216 111.735 67.44 112.775 66.88C113.815 66.32 114.983 66.04 116.279 66.04C117.591 66.04 118.767 66.32 119.807 66.88C120.847 67.44 121.655 68.216 122.231 69.208C122.823 70.2 123.119 71.328 123.119 72.592C123.119 73.856 122.823 74.992 122.231 76C121.655 76.992 120.847 77.768 119.807 78.328C118.767 78.888 117.591 79.168 116.279 79.168ZM116.279 76.6C117.383 76.6 118.295 76.232 119.015 75.496C119.735 74.76 120.095 73.792 120.095 72.592C120.095 71.392 119.735 70.424 119.015 69.688C118.295 68.952 117.383 68.584 116.279 68.584C115.175 68.584 114.263 68.952 113.543 69.688C112.839 70.424 112.487 71.392 112.487 72.592C112.487 73.792 112.839 74.76 113.543 75.496C114.263 76.232 115.175 76.6 116.279 76.6ZM125.988 61.192H128.988V79H125.988V61.192ZM145.477 61.192V79H142.597V77.344C142.101 77.952 141.485 78.408 140.749 78.712C140.029 79.016 139.229 79.168 138.349 79.168C137.117 79.168 136.005 78.896 135.013 78.352C134.037 77.808 133.269 77.04 132.709 76.048C132.149 75.04 131.869 73.888 131.869 72.592C131.869 71.296 132.149 70.152 132.709 69.16C133.269 68.168 134.037 67.4 135.013 66.856C136.005 66.312 137.117 66.04 138.349 66.04C139.197 66.04 139.973 66.184 140.677 66.472C141.381 66.76 141.981 67.192 142.477 67.768V61.192H145.477ZM138.709 76.6C139.429 76.6 140.077 76.44 140.653 76.12C141.229 75.784 141.685 75.312 142.021 74.704C142.357 74.096 142.525 73.392 142.525 72.592C142.525 71.792 142.357 71.088 142.021 70.48C141.685 69.872 141.229 69.408 140.653 69.088C140.077 68.752 139.429 68.584 138.709 68.584C137.989 68.584 137.341 68.752 136.765 69.088C136.189 69.408 135.733 69.872 135.397 70.48C135.061 71.088 134.893 71.792 134.893 72.592C134.893 73.392 135.061 74.096 135.397 74.704C135.733 75.312 136.189 75.784 136.765 76.12C137.341 76.44 137.989 76.6 138.709 76.6Z" fill="white"/>
<rect x="42.5" y="47.5" width="137" height="45" stroke="black" stroke-width="3"/>
<path d="M11.3535 45.4109L3.00004 4L38.676 25.5754L21.4471 30.2733L11.3535 45.4109Z" fill="#00B5CE"/>
<path d="M11.3535 45.4109L3.00004 4L38.676 25.5754L21.4471 30.2733L11.3535 45.4109Z" stroke="black" stroke-width="3" stroke-linecap="square"/>
</svg>
