<svg width="182" height="95" viewBox="0 0 182 95" fill="none" xmlns="http://www.w3.org/2000/svg">
<rect x="41.7832" y="47.5" width="137" height="45" fill="#FFC700"/>
<path d="M96.5018 80.68C95.9418 81.336 95.2858 81.832 94.5338 82.168C93.7978 82.504 92.9898 82.672 92.1098 82.672C90.9578 82.672 89.9018 82.408 88.9418 81.88C87.9818 81.368 86.8858 80.472 85.6538 79.192C84.1018 79.064 82.7098 78.616 81.4778 77.848C80.2458 77.064 79.2858 76.048 78.5978 74.8C77.9098 73.536 77.5658 72.136 77.5658 70.6C77.5658 68.968 77.9578 67.496 78.7418 66.184C79.5258 64.856 80.6058 63.824 81.9818 63.088C83.3578 62.336 84.9018 61.96 86.6138 61.96C88.3258 61.96 89.8698 62.336 91.2458 63.088C92.6218 63.824 93.7018 64.848 94.4858 66.16C95.2698 67.472 95.6618 68.952 95.6618 70.6C95.6618 71.928 95.3978 73.16 94.8698 74.296C94.3418 75.416 93.6058 76.376 92.6618 77.176C91.7178 77.96 90.6218 78.528 89.3738 78.88C89.8378 79.376 90.2938 79.736 90.7418 79.96C91.1898 80.184 91.6698 80.296 92.1818 80.296C93.2858 80.296 94.2458 79.848 95.0618 78.952L96.5018 80.68ZM80.7098 70.6C80.7098 71.72 80.9658 72.736 81.4778 73.648C81.9898 74.544 82.6938 75.248 83.5898 75.76C84.4858 76.256 85.4938 76.504 86.6138 76.504C87.7338 76.504 88.7418 76.256 89.6378 75.76C90.5338 75.248 91.2378 74.544 91.7498 73.648C92.2618 72.736 92.5178 71.72 92.5178 70.6C92.5178 69.48 92.2618 68.472 91.7498 67.576C91.2378 66.664 90.5338 65.96 89.6378 65.464C88.7418 64.952 87.7338 64.696 86.6138 64.696C85.4938 64.696 84.4858 64.952 83.5898 65.464C82.6938 65.96 81.9898 66.664 81.4778 67.576C80.9658 68.472 80.7098 69.48 80.7098 70.6ZM111.089 66.184V79H108.233V77.368C107.753 77.944 107.153 78.392 106.433 78.712C105.713 79.016 104.937 79.168 104.105 79.168C102.393 79.168 101.041 78.696 100.049 77.752C99.0729 76.792 98.5849 75.376 98.5849 73.504V66.184H101.585V73.096C101.585 74.248 101.841 75.112 102.353 75.688C102.881 76.248 103.625 76.528 104.585 76.528C105.657 76.528 106.505 76.2 107.129 75.544C107.769 74.872 108.089 73.912 108.089 72.664V66.184H111.089ZM119.913 66.04C121.801 66.04 123.241 66.496 124.233 67.408C125.241 68.304 125.745 69.664 125.745 71.488V79H122.913V77.44C122.545 78 122.017 78.432 121.329 78.736C120.657 79.024 119.841 79.168 118.881 79.168C117.921 79.168 117.081 79.008 116.361 78.688C115.641 78.352 115.081 77.896 114.681 77.32C114.297 76.728 114.105 76.064 114.105 75.328C114.105 74.176 114.529 73.256 115.377 72.568C116.241 71.864 117.593 71.512 119.433 71.512H122.745V71.32C122.745 70.424 122.473 69.736 121.929 69.256C121.401 68.776 120.609 68.536 119.553 68.536C118.833 68.536 118.121 68.648 117.417 68.872C116.729 69.096 116.145 69.408 115.665 69.808L114.489 67.624C115.161 67.112 115.969 66.72 116.913 66.448C117.857 66.176 118.857 66.04 119.913 66.04ZM119.505 76.984C120.257 76.984 120.921 76.816 121.497 76.48C122.089 76.128 122.505 75.632 122.745 74.992V73.504H119.649C117.921 73.504 117.057 74.072 117.057 75.208C117.057 75.752 117.273 76.184 117.705 76.504C118.137 76.824 118.737 76.984 119.505 76.984ZM122.289 64.432L120.177 62.656L118.065 64.432H115.593L118.809 61.144H121.545L124.761 64.432H122.289ZM136.867 66.04C138.483 66.04 139.779 66.512 140.755 67.456C141.731 68.4 142.219 69.8 142.219 71.656V79H139.219V72.04C139.219 70.92 138.955 70.08 138.427 69.52C137.899 68.944 137.147 68.656 136.171 68.656C135.067 68.656 134.195 68.992 133.555 69.664C132.915 70.32 132.595 71.272 132.595 72.52V79H129.595V66.184H132.451V67.84C132.947 67.248 133.571 66.8 134.323 66.496C135.075 66.192 135.923 66.04 136.867 66.04Z" fill="black"/>
<rect x="41.7832" y="47.5" width="137" height="45" stroke="black" stroke-width="3"/>
<path d="M10.6367 45.4109L2.28324 4L37.9592 25.5754L20.7303 30.2733L10.6367 45.4109Z" fill="#FFC700"/>
<path d="M10.6367 45.4109L2.28324 4L37.9592 25.5754L20.7303 30.2733L10.6367 45.4109Z" stroke="black" stroke-width="3" stroke-linecap="square"/>
</svg>
