<svg width="182" height="95" viewBox="0 0 182 95" fill="none" xmlns="http://www.w3.org/2000/svg">
<rect x="42.0664" y="47.5" width="137" height="45" fill="#F24E1E"/>
<path d="M60.7421 64.84H55.1741V62.2H69.4301V64.84H63.8621V79H60.7421V64.84ZM78.7556 66.04C80.3716 66.04 81.6676 66.512 82.6436 67.456C83.6196 68.4 84.1076 69.8 84.1076 71.656V79H81.1076V72.04C81.1076 70.92 80.8436 70.08 80.3156 69.52C79.7876 68.944 79.0356 68.656 78.0596 68.656C76.9556 68.656 76.0836 68.992 75.4436 69.664C74.8036 70.32 74.4836 71.272 74.4836 72.52V79H71.4836V61.192H74.4836V67.672C74.9796 67.144 75.5876 66.744 76.3076 66.472C77.0436 66.184 77.8596 66.04 78.7556 66.04ZM99.6789 66.184L93.6789 80.032C93.1189 81.424 92.4389 82.4 91.6389 82.96C90.8389 83.536 89.8709 83.824 88.7349 83.824C88.0949 83.824 87.4629 83.72 86.8389 83.512C86.2149 83.304 85.7029 83.016 85.3029 82.648L86.5029 80.44C86.7909 80.712 87.1269 80.928 87.5109 81.088C87.9109 81.248 88.3109 81.328 88.7109 81.328C89.2389 81.328 89.6709 81.192 90.0069 80.92C90.3589 80.648 90.6789 80.192 90.9669 79.552L91.1829 79.048L85.5909 66.184H88.7109L92.7429 75.664L96.7989 66.184H99.6789ZM104.41 68.056C105.274 66.712 106.794 66.04 108.97 66.04V68.896C108.714 68.848 108.482 68.824 108.274 68.824C107.106 68.824 106.194 69.168 105.538 69.856C104.882 70.528 104.554 71.504 104.554 72.784V79H101.554V66.184H104.41V68.056ZM119.688 78.304C119.336 78.592 118.904 78.808 118.392 78.952C117.896 79.096 117.368 79.168 116.808 79.168C115.4 79.168 114.312 78.8 113.544 78.064C112.776 77.328 112.392 76.256 112.392 74.848V68.68H110.28V66.28H112.392V63.352H115.392V66.28H118.824V68.68H115.392V74.776C115.392 75.4 115.544 75.88 115.848 76.216C116.152 76.536 116.592 76.696 117.168 76.696C117.84 76.696 118.4 76.52 118.848 76.168L119.688 78.304ZM133.782 72.664C133.782 72.872 133.766 73.168 133.734 73.552H123.678C123.854 74.496 124.31 75.248 125.046 75.808C125.798 76.352 126.726 76.624 127.83 76.624C129.238 76.624 130.398 76.16 131.31 75.232L132.918 77.08C132.342 77.768 131.614 78.288 130.734 78.64C129.854 78.992 128.862 79.168 127.758 79.168C126.35 79.168 125.11 78.888 124.038 78.328C122.966 77.768 122.134 76.992 121.542 76C120.966 74.992 120.678 73.856 120.678 72.592C120.678 71.344 120.958 70.224 121.518 69.232C122.094 68.224 122.886 67.44 123.894 66.88C124.902 66.32 126.038 66.04 127.302 66.04C128.55 66.04 129.662 66.32 130.638 66.88C131.63 67.424 132.398 68.2 132.942 69.208C133.502 70.2 133.782 71.352 133.782 72.664ZM127.302 68.44C126.342 68.44 125.526 68.728 124.854 69.304C124.198 69.864 123.798 70.616 123.654 71.56H130.926C130.798 70.632 130.406 69.88 129.75 69.304C129.094 68.728 128.278 68.44 127.302 68.44ZM148.711 72.664C148.711 72.872 148.695 73.168 148.663 73.552H138.607C138.783 74.496 139.239 75.248 139.975 75.808C140.727 76.352 141.655 76.624 142.759 76.624C144.167 76.624 145.327 76.16 146.239 75.232L147.847 77.08C147.271 77.768 146.543 78.288 145.663 78.64C144.783 78.992 143.791 79.168 142.687 79.168C141.279 79.168 140.039 78.888 138.967 78.328C137.895 77.768 137.063 76.992 136.471 76C135.895 74.992 135.607 73.856 135.607 72.592C135.607 71.344 135.887 70.224 136.447 69.232C137.023 68.224 137.815 67.44 138.823 66.88C139.831 66.32 140.967 66.04 142.231 66.04C143.479 66.04 144.591 66.32 145.567 66.88C146.559 67.424 147.327 68.2 147.871 69.208C148.431 70.2 148.711 71.352 148.711 72.664ZM142.231 68.44C141.271 68.44 140.455 68.728 139.783 69.304C139.127 69.864 138.727 70.616 138.583 71.56H145.855C145.727 70.632 145.335 69.88 144.679 69.304C144.023 68.728 143.207 68.44 142.231 68.44ZM158.865 66.04C160.481 66.04 161.777 66.512 162.753 67.456C163.729 68.4 164.217 69.8 164.217 71.656V79H161.217V72.04C161.217 70.92 160.953 70.08 160.425 69.52C159.897 68.944 159.145 68.656 158.169 68.656C157.065 68.656 156.193 68.992 155.553 69.664C154.913 70.32 154.593 71.272 154.593 72.52V79H151.593V66.184H154.449V67.84C154.945 67.248 155.569 66.8 156.321 66.496C157.073 66.192 157.921 66.04 158.865 66.04Z" fill="white"/>
<rect x="42.0664" y="47.5" width="137" height="45" stroke="black" stroke-width="3"/>
<path d="M10.9196 45.4109L2.5662 4L38.2422 25.5754L21.0133 30.2733L10.9196 45.4109Z" fill="#F24E1E"/>
<path d="M10.9196 45.4109L2.5662 4L38.2422 25.5754L21.0133 30.2733L10.9196 45.4109Z" stroke="black" stroke-width="3" stroke-linecap="square"/>
</svg>
