<svg width="183" height="95" viewBox="0 0 183 95" fill="none" xmlns="http://www.w3.org/2000/svg">
<rect x="42.5" y="47.5" width="137" height="45" fill="#907CFF"/>
<path d="M64.0373 62.2H67.1573V76.36H75.9413V79H64.0373V62.2ZM78.1164 66.184H81.1164V79H78.1164V66.184ZM79.6284 64.072C79.0844 64.072 78.6284 63.904 78.2604 63.568C77.8924 63.216 77.7084 62.784 77.7084 62.272C77.7084 61.76 77.8924 61.336 78.2604 61C78.6284 60.648 79.0844 60.472 79.6284 60.472C80.1724 60.472 80.6284 60.64 80.9964 60.976C81.3644 61.296 81.5484 61.704 81.5484 62.2C81.5484 62.728 81.3644 63.176 80.9964 63.544C80.6444 63.896 80.1884 64.072 79.6284 64.072ZM92.3259 66.04C93.9419 66.04 95.2379 66.512 96.2139 67.456C97.1899 68.4 97.6779 69.8 97.6779 71.656V79H94.6779V72.04C94.6779 70.92 94.4139 70.08 93.8859 69.52C93.3579 68.944 92.6059 68.656 91.6299 68.656C90.5259 68.656 89.6539 68.992 89.0139 69.664C88.3739 70.32 88.0539 71.272 88.0539 72.52V79H85.0539V66.184H87.9099V67.84C88.4059 67.248 89.0299 66.8 89.7819 66.496C90.5339 66.192 91.3819 66.04 92.3259 66.04ZM108.756 66.04C110.372 66.04 111.668 66.512 112.644 67.456C113.62 68.4 114.108 69.8 114.108 71.656V79H111.108V72.04C111.108 70.92 110.844 70.08 110.316 69.52C109.788 68.944 109.036 68.656 108.06 68.656C106.956 68.656 106.084 68.992 105.444 69.664C104.804 70.32 104.484 71.272 104.484 72.52V79H101.484V61.192H104.484V67.672C104.98 67.144 105.588 66.744 106.308 66.472C107.044 66.184 107.86 66.04 108.756 66.04ZM129.679 66.184L123.679 80.032C123.119 81.424 122.439 82.4 121.639 82.96C120.839 83.536 119.871 83.824 118.735 83.824C118.095 83.824 117.463 83.72 116.839 83.512C116.215 83.304 115.703 83.016 115.303 82.648L116.503 80.44C116.791 80.712 117.127 80.928 117.511 81.088C117.911 81.248 118.311 81.328 118.711 81.328C119.239 81.328 119.671 81.192 120.007 80.92C120.359 80.648 120.679 80.192 120.967 79.552L121.183 79.048L115.591 66.184H118.711L122.743 75.664L126.799 66.184H129.679ZM136.052 66.04C137.94 66.04 139.38 66.496 140.372 67.408C141.38 68.304 141.884 69.664 141.884 71.488V79H139.052V77.44C138.684 78 138.156 78.432 137.468 78.736C136.796 79.024 135.98 79.168 135.02 79.168C134.06 79.168 133.22 79.008 132.5 78.688C131.78 78.352 131.22 77.896 130.82 77.32C130.436 76.728 130.244 76.064 130.244 75.328C130.244 74.176 130.668 73.256 131.516 72.568C132.38 71.864 133.732 71.512 135.572 71.512H138.884V71.32C138.884 70.424 138.612 69.736 138.068 69.256C137.54 68.776 136.748 68.536 135.692 68.536C134.972 68.536 134.26 68.648 133.556 68.872C132.868 69.096 132.284 69.408 131.804 69.808L130.628 67.624C131.3 67.112 132.108 66.72 133.052 66.448C133.996 66.176 134.996 66.04 136.052 66.04ZM135.644 76.984C136.396 76.984 137.06 76.816 137.636 76.48C138.228 76.128 138.644 75.632 138.884 74.992V73.504H135.788C134.06 73.504 133.196 74.072 133.196 75.208C133.196 75.752 133.412 76.184 133.844 76.504C134.276 76.824 134.876 76.984 135.644 76.984ZM152.838 66.04C154.086 66.04 155.198 66.312 156.174 66.856C157.166 67.4 157.942 68.168 158.502 69.16C159.062 70.152 159.342 71.296 159.342 72.592C159.342 73.888 159.062 75.04 158.502 76.048C157.942 77.04 157.166 77.808 156.174 78.352C155.198 78.896 154.086 79.168 152.838 79.168C151.958 79.168 151.15 79.016 150.414 78.712C149.694 78.408 149.086 77.952 148.59 77.344V79H145.734V61.192H148.734V67.744C149.246 67.184 149.846 66.76 150.534 66.472C151.238 66.184 152.006 66.04 152.838 66.04ZM152.502 76.6C153.606 76.6 154.51 76.232 155.214 75.496C155.934 74.76 156.294 73.792 156.294 72.592C156.294 71.392 155.934 70.424 155.214 69.688C154.51 68.952 153.606 68.584 152.502 68.584C151.782 68.584 151.134 68.752 150.558 69.088C149.982 69.408 149.526 69.872 149.19 70.48C148.854 71.088 148.686 71.792 148.686 72.592C148.686 73.392 148.854 74.096 149.19 74.704C149.526 75.312 149.982 75.784 150.558 76.12C151.134 76.44 151.782 76.6 152.502 76.6Z" fill="white"/>
<rect x="42.5" y="47.5" width="137" height="45" stroke="black" stroke-width="3"/>
<path d="M11.3535 45.4109L3.00004 4L38.676 25.5754L21.4471 30.2733L11.3535 45.4109Z" fill="#907CFF"/>
<path d="M11.3535 45.4109L3.00004 4L38.676 25.5754L21.4471 30.2733L11.3535 45.4109Z" stroke="black" stroke-width="3" stroke-linecap="square"/>
</svg>
