<svg width="182" height="95" viewBox="0 0 182 95" fill="none" xmlns="http://www.w3.org/2000/svg">
<rect x="42.0664" y="47.5" width="137" height="45" fill="#0FA958"/>
<path d="M66.7091 62.2H74.0531C75.8451 62.2 77.4371 62.552 78.8291 63.256C80.2211 63.944 81.3011 64.928 82.0691 66.208C82.8371 67.472 83.2211 68.936 83.2211 70.6C83.2211 72.264 82.8371 73.736 82.0691 75.016C81.3011 76.28 80.2211 77.264 78.8291 77.968C77.4371 78.656 75.8451 79 74.0531 79H66.7091V62.2ZM73.9091 76.36C75.1411 76.36 76.2211 76.128 77.1491 75.664C78.0931 75.184 78.8131 74.512 79.3091 73.648C79.8211 72.768 80.0771 71.752 80.0771 70.6C80.0771 69.448 79.8211 68.44 79.3091 67.576C78.8131 66.696 78.0931 66.024 77.1491 65.56C76.2211 65.08 75.1411 64.84 73.9091 64.84H69.8291V76.36H73.9091ZM98.6573 66.184V79H95.8013V77.368C95.3213 77.944 94.7213 78.392 94.0013 78.712C93.2813 79.016 92.5053 79.168 91.6733 79.168C89.9613 79.168 88.6093 78.696 87.6173 77.752C86.6413 76.792 86.1533 75.376 86.1533 73.504V66.184H89.1533V73.096C89.1533 74.248 89.4093 75.112 89.9213 75.688C90.4493 76.248 91.1933 76.528 92.1533 76.528C93.2253 76.528 94.0733 76.2 94.6973 75.544C95.3373 74.872 95.6573 73.912 95.6573 72.664V66.184H98.6573ZM112.593 76.6V79H101.529V77.104L108.561 68.584H101.673V66.184H112.401V68.08L105.345 76.6H112.593ZM120.591 73.504L118.359 75.616V79H115.359V61.192H118.359V71.944L124.575 66.184H128.175L122.823 71.56L128.679 79H125.031L120.591 73.504ZM142.125 72.664C142.125 72.872 142.109 73.168 142.077 73.552H132.021C132.197 74.496 132.653 75.248 133.389 75.808C134.141 76.352 135.069 76.624 136.173 76.624C137.581 76.624 138.741 76.16 139.653 75.232L141.261 77.08C140.685 77.768 139.957 78.288 139.077 78.64C138.197 78.992 137.205 79.168 136.101 79.168C134.693 79.168 133.453 78.888 132.381 78.328C131.309 77.768 130.477 76.992 129.885 76C129.309 74.992 129.021 73.856 129.021 72.592C129.021 71.344 129.301 70.224 129.861 69.232C130.437 68.224 131.229 67.44 132.237 66.88C133.245 66.32 134.381 66.04 135.645 66.04C136.893 66.04 138.005 66.32 138.981 66.88C139.973 67.424 140.741 68.2 141.285 69.208C141.845 70.2 142.125 71.352 142.125 72.664ZM135.645 68.44C134.685 68.44 133.869 68.728 133.197 69.304C132.541 69.864 132.141 70.616 131.997 71.56H139.269C139.141 70.632 138.749 69.88 138.093 69.304C137.437 68.728 136.621 68.44 135.645 68.44ZM156.773 66.184L150.773 80.032C150.213 81.424 149.533 82.4 148.733 82.96C147.933 83.536 146.965 83.824 145.829 83.824C145.189 83.824 144.557 83.72 143.933 83.512C143.309 83.304 142.797 83.016 142.397 82.648L143.597 80.44C143.885 80.712 144.221 80.928 144.605 81.088C145.005 81.248 145.405 81.328 145.805 81.328C146.333 81.328 146.765 81.192 147.101 80.92C147.453 80.648 147.773 80.192 148.061 79.552L148.277 79.048L142.685 66.184H145.805L149.837 75.664L153.893 66.184H156.773Z" fill="white"/>
<rect x="42.0664" y="47.5" width="137" height="45" stroke="black" stroke-width="3"/>
<path d="M10.9196 45.4109L2.5662 4L38.2422 25.5754L21.0133 30.2733L10.9196 45.4109Z" fill="#0FA958"/>
<path d="M10.9196 45.4109L2.5662 4L38.2422 25.5754L21.0133 30.2733L10.9196 45.4109Z" stroke="black" stroke-width="3" stroke-linecap="square"/>
</svg>
